<svg xmlns="http://www.w3.org/2000/svg" id="blank1-figure" width="630" height="630" viewBox="0 0 630 630">
  <defs>
    <clipPath id="blank1-__clipPath-0">
      <rect x="15.0" y="15.0" width="600.0" height="600.0"/>
    </clipPath>
    <clipPath id="blank1-__clipPath-1">
      <rect x="15.0" y="15.0" width="600.0" height="600.0"/>
    </clipPath>
  </defs>
  <g id="blank1-grid-axes">
    <g id="blank1-grid" stroke="#ccc" stroke-width="1">
      <line x1="28.5" y1="615.0" x2="28.5" y2="15.0"/>
      <line x1="52.4" y1="615.0" x2="52.4" y2="15.0"/>
      <line x1="76.3" y1="615.0" x2="76.3" y2="15.0"/>
      <line x1="100.1" y1="615.0" x2="100.1" y2="15.0"/>
      <line x1="124.0" y1="615.0" x2="124.0" y2="15.0"/>
      <line x1="147.9" y1="615.0" x2="147.9" y2="15.0"/>
      <line x1="171.8" y1="615.0" x2="171.8" y2="15.0"/>
      <line x1="195.6" y1="615.0" x2="195.6" y2="15.0"/>
      <line x1="219.5" y1="615.0" x2="219.5" y2="15.0"/>
      <line x1="243.4" y1="615.0" x2="243.4" y2="15.0"/>
      <line x1="267.3" y1="615.0" x2="267.3" y2="15.0"/>
      <line x1="291.1" y1="615.0" x2="291.1" y2="15.0"/>
      <line x1="315.0" y1="615.0" x2="315.0" y2="15.0"/>
      <line x1="338.9" y1="615.0" x2="338.9" y2="15.0"/>
      <line x1="362.7" y1="615.0" x2="362.7" y2="15.0"/>
      <line x1="386.6" y1="615.0" x2="386.6" y2="15.0"/>
      <line x1="410.5" y1="615.0" x2="410.5" y2="15.0"/>
      <line x1="434.4" y1="615.0" x2="434.4" y2="15.0"/>
      <line x1="458.2" y1="615.0" x2="458.2" y2="15.0"/>
      <line x1="482.1" y1="615.0" x2="482.1" y2="15.0"/>
      <line x1="506.0" y1="615.0" x2="506.0" y2="15.0"/>
      <line x1="529.9" y1="615.0" x2="529.9" y2="15.0"/>
      <line x1="553.7" y1="615.0" x2="553.7" y2="15.0"/>
      <line x1="577.6" y1="615.0" x2="577.6" y2="15.0"/>
      <line x1="601.5" y1="615.0" x2="601.5" y2="15.0"/>
      <line x1="15.0" y1="601.5" x2="615.0" y2="601.5"/>
      <line x1="15.0" y1="577.6" x2="615.0" y2="577.6"/>
      <line x1="15.0" y1="553.7" x2="615.0" y2="553.7"/>
      <line x1="15.0" y1="529.9" x2="615.0" y2="529.9"/>
      <line x1="15.0" y1="506.0" x2="615.0" y2="506.0"/>
      <line x1="15.0" y1="482.1" x2="615.0" y2="482.1"/>
      <line x1="15.0" y1="458.2" x2="615.0" y2="458.2"/>
      <line x1="15.0" y1="434.4" x2="615.0" y2="434.4"/>
      <line x1="15.0" y1="410.5" x2="615.0" y2="410.5"/>
      <line x1="15.0" y1="386.6" x2="615.0" y2="386.6"/>
      <line x1="15.0" y1="362.7" x2="615.0" y2="362.7"/>
      <line x1="15.0" y1="338.9" x2="615.0" y2="338.9"/>
      <line x1="15.0" y1="315.0" x2="615.0" y2="315.0"/>
      <line x1="15.0" y1="291.1" x2="615.0" y2="291.1"/>
      <line x1="15.0" y1="267.3" x2="615.0" y2="267.3"/>
      <line x1="15.0" y1="243.4" x2="615.0" y2="243.4"/>
      <line x1="15.0" y1="219.5" x2="615.0" y2="219.5"/>
      <line x1="15.0" y1="195.6" x2="615.0" y2="195.6"/>
      <line x1="15.0" y1="171.8" x2="615.0" y2="171.8"/>
      <line x1="15.0" y1="147.9" x2="615.0" y2="147.9"/>
      <line x1="15.0" y1="124.0" x2="615.0" y2="124.0"/>
      <line x1="15.0" y1="100.1" x2="615.0" y2="100.1"/>
      <line x1="15.0" y1="76.3" x2="615.0" y2="76.3"/>
      <line x1="15.0" y1="52.4" x2="615.0" y2="52.4"/>
      <line x1="15.0" y1="28.5" x2="615.0" y2="28.5"/>
    </g>
    <g id="blank1-axes" stroke="black" stroke-width="2">
      <line id="blank1-__line-50" x1="15.0" y1="315.0" x2="615.0" y2="315.0" stroke="black" stroke-width="2"/>
      <g>
        <line id="blank1-__line-51" x1="124.0" y1="318.0" x2="124.0" y2="312.0"/>
        <line id="blank1-__line-52" x1="506.0" y1="318.0" x2="506.0" y2="312.0"/>
      </g>
      <line id="blank1-__line-53" x1="315.0" y1="615.0" x2="315.0" y2="15.0" stroke="black" stroke-width="2"/>
      <g>
        <line id="blank1-__line-54" x1="312.0" y1="506.0" x2="318.0" y2="506.0"/>
        <line id="blank1-__line-55" x1="312.0" y1="124.0" x2="318.0" y2="124.0"/>
      </g>
    </g>
    <g id="blank1-__label-0" transform="translate(124.0,326.0) translate(-7.5,-0.0)">
      <g id="blank1-__g-0">
        <svg xmlns:xlink="http://www.w3.org/1999/xlink" style="vertical-align: 0.000px" width="15.080px" height="12.056px" role="img" focusable="false" viewBox="0 -666 833 666" x="0.0" y="0.0">
          <defs>
            <path id="blank1-MJX-2-TEX-N-2D" d="M11 179V252H277V179H11Z"/>
            <path id="blank1-MJX-2-TEX-N-31" d="M213 578L200 573Q186 568 160 563T102 556H83V602H102Q149 604 189 617T245 641T273 663Q275 666 285 666Q294 666 302 660V361L303 61Q310 54 315 52T339 48T401 46H427V0H416Q395 3 257 3Q121 3 100 0H88V46H114Q136 46 152 46T177 47T193 50T201 52T207 57T213 61V578Z"/>
          </defs>
          <g stroke="currentColor" fill="currentColor" stroke-width="0" transform="scale(1,-1)">
            <g data-mml-node="math">
              <g data-mml-node="mtext" data-semantic-type="text" data-semantic-role="unknown" data-semantic-font="normal" data-semantic-annotation="clearspeak:unit" data-semantic-id="0" data-semantic-speech="hyphen 1">
                <use data-c="2D" xlink:href="#blank1-MJX-2-TEX-N-2D"/>
                <use data-c="31" xlink:href="#blank1-MJX-2-TEX-N-31" transform="translate(333,0)"/>
              </g>
            </g>
          </g>
        </svg>
      </g>
    </g>
    <g id="blank1-__label-1" transform="translate(506.0,326.0) translate(-4.5,-0.0)">
      <g id="blank1-__g-1">
        <svg xmlns:xlink="http://www.w3.org/1999/xlink" style="vertical-align: 0.000px" width="9.048px" height="12.056px" role="img" focusable="false" viewBox="0 -666 500 666" x="0.0" y="0.0">
          <defs>
            <path id="blank1-MJX-3-TEX-N-31" d="M213 578L200 573Q186 568 160 563T102 556H83V602H102Q149 604 189 617T245 641T273 663Q275 666 285 666Q294 666 302 660V361L303 61Q310 54 315 52T339 48T401 46H427V0H416Q395 3 257 3Q121 3 100 0H88V46H114Q136 46 152 46T177 47T193 50T201 52T207 57T213 61V578Z"/>
          </defs>
          <g stroke="currentColor" fill="currentColor" stroke-width="0" transform="scale(1,-1)">
            <g data-mml-node="math">
              <g data-mml-node="mtext" data-semantic-type="text" data-semantic-role="integer" data-semantic-font="normal" data-semantic-annotation="clearspeak:unit" data-semantic-id="0" data-semantic-speech="1">
                <use data-c="31" xlink:href="#blank1-MJX-3-TEX-N-31"/>
              </g>
            </g>
          </g>
        </svg>
      </g>
    </g>
    <g id="blank1-__label-2" transform="translate(304.0,506.0) translate(-15.1,-6.0)">
      <g id="blank1-__g-2">
        <svg xmlns:xlink="http://www.w3.org/1999/xlink" style="vertical-align: 0.000px" width="15.080px" height="12.056px" role="img" focusable="false" viewBox="0 -666 833 666" x="0.0" y="0.0">
          <defs>
            <path id="blank1-MJX-4-TEX-N-2D" d="M11 179V252H277V179H11Z"/>
            <path id="blank1-MJX-4-TEX-N-31" d="M213 578L200 573Q186 568 160 563T102 556H83V602H102Q149 604 189 617T245 641T273 663Q275 666 285 666Q294 666 302 660V361L303 61Q310 54 315 52T339 48T401 46H427V0H416Q395 3 257 3Q121 3 100 0H88V46H114Q136 46 152 46T177 47T193 50T201 52T207 57T213 61V578Z"/>
          </defs>
          <g stroke="currentColor" fill="currentColor" stroke-width="0" transform="scale(1,-1)">
            <g data-mml-node="math">
              <g data-mml-node="mtext" data-semantic-type="text" data-semantic-role="unknown" data-semantic-font="normal" data-semantic-annotation="clearspeak:unit" data-semantic-id="0" data-semantic-speech="hyphen 1">
                <use data-c="2D" xlink:href="#blank1-MJX-4-TEX-N-2D"/>
                <use data-c="31" xlink:href="#blank1-MJX-4-TEX-N-31" transform="translate(333,0)"/>
              </g>
            </g>
          </g>
        </svg>
      </g>
    </g>
    <g id="blank1-__label-3" transform="translate(304.0,124.0) translate(-9.0,-6.0)">
      <g id="blank1-__g-3">
        <svg xmlns:xlink="http://www.w3.org/1999/xlink" style="vertical-align: 0.000px" width="9.048px" height="12.056px" role="img" focusable="false" viewBox="0 -666 500 666" x="0.0" y="0.0">
          <defs>
            <path id="blank1-MJX-5-TEX-N-31" d="M213 578L200 573Q186 568 160 563T102 556H83V602H102Q149 604 189 617T245 641T273 663Q275 666 285 666Q294 666 302 660V361L303 61Q310 54 315 52T339 48T401 46H427V0H416Q395 3 257 3Q121 3 100 0H88V46H114Q136 46 152 46T177 47T193 50T201 52T207 57T213 61V578Z"/>
          </defs>
          <g stroke="currentColor" fill="currentColor" stroke-width="0" transform="scale(1,-1)">
            <g data-mml-node="math">
              <g data-mml-node="mtext" data-semantic-type="text" data-semantic-role="integer" data-semantic-font="normal" data-semantic-annotation="clearspeak:unit" data-semantic-id="0" data-semantic-speech="1">
                <use data-c="31" xlink:href="#blank1-MJX-5-TEX-N-31"/>
              </g>
            </g>
          </g>
        </svg>
      </g>
    </g>
  </g>
</svg>
